<svg width="62" height="62" viewBox="0 0 62 62" fill="none" xmlns="http://www.w3.org/2000/svg">
<circle cx="30.6997" cy="30.6998" r="30" fill="white" fill-opacity="0.1"/>
<path d="M30.0623 3.70727C30.0232 2.05087 31.3372 0.660778 32.9893 0.787229C37.8747 1.16117 42.6105 2.72772 46.7732 5.3692C51.7832 8.54828 55.7379 13.1416 58.1372 18.5682C60.5366 23.9949 61.2729 30.0112 60.2531 35.8563C59.2332 41.7015 56.5029 47.1129 52.4076 51.4063C48.3122 55.6998 43.0356 58.6824 37.2451 59.977C31.4546 61.2716 25.4103 60.82 19.8765 58.6794C14.3426 56.5388 9.56779 52.8053 6.15582 47.951C3.32082 43.9176 1.53251 39.2609 0.928428 34.3986C0.724154 32.7544 2.05068 31.3761 3.70708 31.337C5.36347 31.2979 6.71875 32.6146 6.96406 34.2532C7.51418 37.9277 8.91235 41.4387 11.0646 44.5007C13.7941 48.3842 17.614 51.371 22.0411 53.0835C26.4682 54.7959 31.3036 55.1572 35.936 54.1215C40.5684 53.0858 44.7897 50.6998 48.066 47.265C51.3423 43.8303 53.5265 39.5011 54.3424 34.825C55.1583 30.1489 54.5692 25.3359 52.6497 20.9945C50.7302 16.6532 47.5664 12.9786 43.5585 10.4353C40.3983 8.43001 36.8253 7.19909 33.1289 6.823C31.4806 6.65528 30.1014 5.36366 30.0623 3.70727Z" fill="#14FF00"/>
<path d="M23.2075 25.5904L18.8091 35.6998H16.4263L20.8325 26.1529H15.1763V24.3248H23.2075V25.5904ZM30.7056 24.2076V26.067H30.4869C29.4661 26.0826 28.6431 26.3482 28.0181 26.8638C27.3984 27.3795 27.026 28.0956 26.901 29.0123C27.5051 28.3977 28.2681 28.0904 29.19 28.0904C30.1796 28.0904 30.9661 28.4446 31.5494 29.1529C32.1327 29.8612 32.4244 30.7935 32.4244 31.9498C32.4244 32.6894 32.2629 33.3586 31.94 33.9576C31.6223 34.5565 31.1692 35.0227 30.5806 35.356C29.9973 35.6894 29.3359 35.856 28.5963 35.856C27.3984 35.856 26.4296 35.4394 25.69 34.606C24.9556 33.7727 24.5885 32.6607 24.5885 31.2701V30.4576C24.5885 29.2232 24.8202 28.1347 25.2838 27.192C25.7525 26.244 26.4218 25.5123 27.2916 24.9966C28.1666 24.4758 29.1796 24.2128 30.3306 24.2076H30.7056ZM28.5025 29.9029C28.1379 29.9029 27.8072 29.9992 27.5103 30.192C27.2135 30.3795 26.9947 30.6295 26.8541 30.942V31.6295C26.8541 32.3847 27.0025 32.9758 27.2994 33.4029C27.5963 33.8248 28.0129 34.0357 28.5494 34.0357C29.0338 34.0357 29.4244 33.8456 29.7213 33.4654C30.0234 33.08 30.1744 32.5826 30.1744 31.9732C30.1744 31.3534 30.0234 30.8534 29.7213 30.4732C29.4192 30.093 29.0129 29.9029 28.5025 29.9029ZM33.6569 26.5123C33.6569 25.8144 33.8835 25.2492 34.3366 24.817C34.7897 24.3795 35.3835 24.1607 36.1178 24.1607C36.8626 24.1607 37.4616 24.3769 37.9147 24.8091C38.3678 25.2362 38.5944 25.817 38.5944 26.5513V27.1138C38.5944 27.817 38.3678 28.3821 37.9147 28.8091C37.4616 29.2362 36.8678 29.4498 36.1335 29.4498C35.3939 29.4498 34.7949 29.2362 34.3366 28.8091C33.8835 28.3769 33.6569 27.7961 33.6569 27.067V26.5123ZM35.1569 27.1138C35.1569 27.4263 35.2454 27.6789 35.4225 27.8716C35.6048 28.0591 35.8418 28.1529 36.1335 28.1529C36.4251 28.1529 36.6569 28.0565 36.8288 27.8638C37.0006 27.6711 37.0866 27.4133 37.0866 27.0904V26.5123C37.0866 26.1998 37.0006 25.9472 36.8288 25.7545C36.6569 25.5617 36.4199 25.4654 36.1178 25.4654C35.8314 25.4654 35.5996 25.5617 35.4225 25.7545C35.2454 25.942 35.1569 26.205 35.1569 26.5435V27.1138ZM39.0944 32.9107C39.0944 32.2076 39.3236 31.6425 39.7819 31.2154C40.2402 30.7831 40.834 30.567 41.5631 30.567C42.3027 30.567 42.8991 30.7805 43.3522 31.2076C43.8105 31.6295 44.0397 32.2128 44.0397 32.9576V33.5201C44.0397 34.218 43.8157 34.7831 43.3678 35.2154C42.9199 35.6425 42.3236 35.856 41.5788 35.856C40.8288 35.856 40.2272 35.6399 39.7741 35.2076C39.321 34.7753 39.0944 34.2024 39.0944 33.4888V32.9107ZM40.5944 33.5201C40.5944 33.8065 40.6881 34.0513 40.8756 34.2545C41.0631 34.4576 41.2975 34.5591 41.5788 34.5591C42.2142 34.5591 42.5319 34.2076 42.5319 33.5045V32.9107C42.5319 32.5982 42.4434 32.3482 42.2663 32.1607C42.0892 31.968 41.8548 31.8716 41.5631 31.8716C41.2715 31.8716 41.0371 31.968 40.86 32.1607C40.6829 32.3482 40.5944 32.606 40.5944 32.9341V33.5201ZM36.5788 34.8482L35.4772 34.2545L41.0319 25.3638L42.1335 25.9576L36.5788 34.8482Z" fill="#14FF00"/>
</svg>
